# xmcd
# Copyright (c) 1998 CDDB Inc.
#
# Track frame offsets:
#	150
#	4368
#	34258
#	48805
#	63640
#	79247
#	92988
#	101787
#	110968
#	113157
#	121257
#	127405
#	134129
#	135672
#	149456
#	161050
#	167772
#	180768
#	187620
#	195243
#	202930
#	208402
#	222287
#	232151
#	257539
#	270415
#	288938
#	299529
#	315031
#	321062
#	333382
#
# Disc length: 4630 seconds
#
# Revision: 0
# Processed by: cddbd v1.4PL0 Copyright (c) Steve Scherf et al.
# Submitted via: audiograbber 1.70
#
DISCID=da12141f
DTITLE=Musikkapelle Handenberg - Frühjahrskonzert 2003
DYEAR=1900
DGENRE=
TTITLE0=A Ceremonial Fanfare
TTITLE1=Bad´ner Mad´ln
TTITLE2=Tenoristenflirt
TTITLE3=Zirkus Humberto
TTITLE4=Posaunenwalzer
TTITLE5=Preußens Gloria Swing
TTITLE6=Radetzky-Bayr. Defiliermarsch
TTITLE7=Über d´Berg übe
TTITLE8=Französische Hymne
TTITLE9=Auf dem Champs-Elysées
TTITLE10=Amazing grace
TTITLE11=Spanisches Medley
TTITLE12=Eurovisionsmelodie
TTITLE13=Chan Chan
TTITLE14=In the mood
TTITLE15=When the saint´s
TTITLE16=Birdland
TTITLE17=Unter dem Sternenbanner
TTITLE18=El Condor Pasa
TTITLE19=Samba Brazil
TTITLE20=Blue Hawaii
TTITLE21=China Marsch
TTITLE22=Russisches Medley
TTITLE23=Auf einem persischen Markt
TTITLE24=African Symphony
TTITLE25=Greek Folk Song
TTITLE26=Verdi
TTITLE27=An der schönen blauen Donau
TTITLE28=Radetzky-Marsch
TTITLE29=Marta Polka
TTITLE30=Europasterne
EXTD=
EXTT0=
EXTT1=
EXTT2=
EXTT3=
EXTT4=
EXTT5=
EXTT6=
EXTT7=
EXTT8=
EXTT9=
EXTT10=
EXTT11=
EXTT12=
EXTT13=
EXTT14=
EXTT15=
EXTT16=
EXTT17=
EXTT18=
EXTT19=
EXTT20=
EXTT21=
EXTT22=
EXTT23=
EXTT24=
EXTT25=
EXTT26=
EXTT27=
EXTT28=
EXTT29=
EXTT30=
PLAYORDER=
